 http://www.scenespeeds.com/

Description

Game change 2012 Dvdrip - ViBE

File size : 1.28 GiB
Duration : 1h 57mn
Overall bit rate : 1 551 Kbps


Video
ID : 0
Format : MPEG-4 Visual
Format profile : Advanced Simple@L5
Format settings, BVOP : 2
Format settings, QPel : No
Format settings, GMC : No warppoints
Format settings, Matrix : Default (H.263)
Muxing mode : Packed bitstream
Codec ID : XVID
Codec ID/Hint : XviD
Duration : 1h 57mn
Bit rate : 1 219 Kbps
Width : 720 pixels
Height : 400 pixels
Display aspect ratio : 16:9
Frame rate : 29.970 fps
Color space : YUV
Chroma subsampling : 4:2:0
Bit depth : 8 bits
Scan type : Progressive
Compression mode : Lossy
Bits/(Pixel*Frame) : 0.141
Stream size : 1.00 GiB (79%)
Writing library : XviD 64

Audio
ID : 1
Format : MPEG Audio
Format version : Version 1
Format profile : Layer 3
Mode : Joint stereo
Mode extension : MS Stereo
Codec ID : 55
Codec ID/Hint : MP3
Duration : 1h 57mn
Bit rate mode : Constant
Bit rate : 320 Kbps
Channel(s) : 2 channels
Sampling rate : 44.1 KHz
Compression mode : Lossy
Delay relative to video : 26ms
Stream size : 270 MiB (21%)
Alignment : Split accross interleaves
Interleave, duration : 33 ms (1.00 video frame)
Interleave, preload duration : 500 ms
Writing library : LAME3.92U•ÆÈ
 
http://www.imdb.com/title/tt1848902/

Follows John McCain's 2008 presidential campaign, from his selection of Alaska Governor Sarah Palin as his running mate to their ultimate defeat
in the general election
  
        
http://www.scenespeeds.com/	